M48
;Layer_Color=9474304
;FILE_FORMAT=2:5
INCH,TZ
;TYPE=PLATED
T01F00S00C0.01000
T02F00S00C0.01968
T03F00S00C0.02200
T04F00S00C0.03000
T05F00S00C0.03937
T06F00S00C0.11811
%
T01
X383000Y178000
Y180000
X385000
Y178000
X389000Y216000
Y218000
X391000
Y216000
X185000Y183000
X183000
Y181000
X185000
X186000Y263000
Y265000
X184000
Y263000
X130000Y250000
X128000
Y248000
X130000
X129000Y381000
Y383000
X127000
Y381000
X311000Y390000
Y392000
X313000
Y390000
X334000Y459000
Y461000
X336000
Y459000
X396000Y414000
Y412000
X398000
Y414000
X383000Y344000
X381000
Y342000
X383000
X457000Y349000
Y351000
X459000
Y349000
T02
X364000Y204000
Y215000
X378000Y220000
X383000Y210000
X393000Y199000
X415000
X419000Y203000
X421000Y228000
X442000Y210000
X450000Y206000
X460000Y213000
X415000Y284000
X404000Y288000
X391000Y289000
X387500
X384000
X380500
X370158Y279842
X190000Y297000
Y307000
X197000Y186000
X290000Y431000
X301000Y443000
T03
X450000Y225000
X454999Y225000
X460000Y225000
Y252000
X454999Y252000
X450000Y252000
T04
X230000Y150000
X260000
X320000
X350000
Y160000
Y170000
Y180000
Y190000
Y200000
Y210000
Y220000
Y230000
Y240000
Y250000
Y260000
Y270000
Y280000
Y290000
Y300000
Y310000
X320000
Y300000
Y290000
Y280000
Y270000
Y260000
Y250000
Y240000
Y230000
Y220000
Y210000
Y200000
Y190000
Y180000
Y170000
Y160000
X383071Y161417
X393071
X403071
X413071
X423071
X433071
X443071
Y191417
X433071
X423071
X413071
X403071
X393071
X383071
X399134Y209842
Y219843
Y229842
Y239843
Y249843
Y259842
Y269843
Y279842
X400000Y300000
X410000
X420000
X430000
Y310000
X420000
X410000
X400000
X429134Y279842
Y269843
Y259842
Y249843
Y239843
Y229842
Y219843
Y209842
X260000Y210000
Y200000
Y190000
Y180000
Y170000
Y160000
X230000
Y170000
Y180000
Y190000
Y200000
Y210000
Y220000
Y230000
Y240000
Y250000
Y260000
Y270000
Y280000
Y290000
Y300000
Y310000
X260000
Y300000
Y290000
Y280000
Y270000
Y260000
Y250000
Y240000
Y230000
Y220000
X188000Y205000
X178000
X168000
X158000
X164000Y247000
X154000
X144000
X148000Y277000
Y287000
Y297000
Y307000
Y205000
X138000
X163000Y345000
Y355000
Y365000
Y375000
X173000
X183000
Y365000
X173000
Y355000
X183000
Y345000
X173000
Y385000
Y395000
Y405000
Y415000
X183000
Y405000
Y395000
Y385000
X163000
Y395000
Y405000
Y415000
X255000Y456000
X265000
X275000
X285000
X295000
X305000
X260000Y340000
Y330000
Y320000
X230000
Y330000
Y340000
X320000
Y330000
Y320000
X350000
Y330000
Y340000
X400000
X410000
X420000
X430000
Y330000
Y320000
X420000
X410000
X400000
Y330000
X410000
X420000
X427000Y420000
X437000
X372000Y410000
X362000
X352000
X351890Y456693
X361890
X371890
X381890
X325000Y456000
X315000
T05
X284743Y158257
T06
X137795Y137795
X452756
X137795Y452756
X259500Y410000
X320000
X452756Y452756
M30
