G04*
G04 #@! TF.GenerationSoftware,Altium Limited,Altium Designer,24.0.1 (36)*
G04*
G04 Layer_Color=2752767*
%FSLAX25Y25*%
%MOIN*%
G70*
G04*
G04 #@! TF.SameCoordinates,67FC8AF9-9308-4AD8-ABDD-2333FC6696B3*
G04*
G04*
G04 #@! TF.FilePolarity,Positive*
G04*
G01*
G75*
%ADD31C,0.00500*%
%ADD32C,0.00667*%
D31*
X186000Y203000D02*
Y207000D01*
X190000D01*
Y203000D01*
X186000D01*
X176000D02*
Y207000D01*
X180000D01*
Y203000D01*
X176000D01*
X166000D02*
Y207000D01*
X170000D01*
Y203000D01*
X166000D01*
X156000D02*
Y207000D01*
X160000D01*
Y203000D01*
X156000D01*
X136000D02*
Y207000D01*
X140000D01*
Y203000D01*
X136000D01*
X146000D02*
Y207000D01*
X150000D01*
Y203000D01*
X146000D01*
X360000Y408000D02*
Y412000D01*
X364000D01*
Y408000D01*
X360000D01*
X370000D02*
Y412000D01*
X374000D01*
Y408000D01*
X370000D01*
X350000D02*
Y412000D01*
X354000D01*
Y408000D01*
X350000D01*
X152000Y245000D02*
Y249000D01*
X156000D01*
Y245000D01*
X152000D01*
X142000D02*
Y249000D01*
X146000D01*
Y245000D01*
X142000D01*
X162000D02*
Y249000D01*
X166000D01*
Y245000D01*
X162000D01*
X181000Y413000D02*
Y417000D01*
X185000D01*
Y413000D01*
X181000D01*
X161000D02*
Y417000D01*
X165000D01*
Y413000D01*
X161000D01*
X171000D02*
Y417000D01*
X175000D01*
Y413000D01*
X171000D01*
Y373000D02*
Y377000D01*
X175000D01*
Y373000D01*
X171000D01*
X161000D02*
Y377000D01*
X165000D01*
Y373000D01*
X161000D01*
X181000D02*
Y377000D01*
X185000D01*
Y373000D01*
X181000D01*
X171000Y403000D02*
Y407000D01*
X175000D01*
Y403000D01*
X171000D01*
X161000D02*
Y407000D01*
X165000D01*
Y403000D01*
X161000D01*
X181000D02*
Y407000D01*
X185000D01*
Y403000D01*
X181000D01*
Y363000D02*
Y367000D01*
X185000D01*
Y363000D01*
X181000D01*
X161000D02*
Y367000D01*
X165000D01*
Y363000D01*
X161000D01*
X171000D02*
Y367000D01*
X175000D01*
Y363000D01*
X171000D01*
X181000Y353000D02*
Y357000D01*
X185000D01*
Y353000D01*
X181000D01*
X171000D02*
Y357000D01*
X175000D01*
Y353000D01*
X171000D01*
X161000D02*
Y357000D01*
X165000D01*
Y353000D01*
X161000D01*
X181000Y393000D02*
Y397000D01*
X185000D01*
Y393000D01*
X181000D01*
X161000D02*
Y397000D01*
X165000D01*
Y393000D01*
X161000D01*
X171000D02*
Y397000D01*
X175000D01*
Y393000D01*
X171000D01*
X181000Y343000D02*
Y347000D01*
X185000D01*
Y343000D01*
X181000D01*
X161000D02*
Y347000D01*
X165000D01*
Y343000D01*
X161000D01*
X171000D02*
Y347000D01*
X175000D01*
Y343000D01*
X171000D01*
X181000Y383000D02*
Y387000D01*
X185000D01*
Y383000D01*
X181000D01*
X161000D02*
Y387000D01*
X165000D01*
Y383000D01*
X161000D01*
X171000D02*
Y387000D01*
X175000D01*
Y383000D01*
X171000D01*
X441071Y159417D02*
Y163417D01*
X445071D01*
Y159417D01*
X441071D01*
X431071D02*
Y163417D01*
X435071D01*
Y159417D01*
X431071D01*
X421071D02*
Y163417D01*
X425071D01*
Y159417D01*
X421071D01*
X411071D02*
Y163417D01*
X415071D01*
Y159417D01*
X411071D01*
X401071D02*
Y163417D01*
X405071D01*
Y159417D01*
X401071D01*
X381071Y189417D02*
Y193417D01*
X385071D01*
Y189417D01*
X381071D01*
X441071D02*
Y193417D01*
X445071D01*
Y189417D01*
X441071D01*
X431071D02*
Y193417D01*
X435071D01*
Y189417D01*
X431071D01*
X421071D02*
Y193417D01*
X425071D01*
Y189417D01*
X421071D01*
X411071D02*
Y193417D01*
X415071D01*
Y189417D01*
X411071D01*
X401071D02*
Y193417D01*
X405071D01*
Y189417D01*
X401071D01*
X391071D02*
Y193417D01*
X395071D01*
Y189417D01*
X391071D01*
X381071Y159417D02*
Y163417D01*
X385071D01*
Y159417D01*
X381071D01*
X391071D02*
Y163417D01*
X395071D01*
Y159417D01*
X391071D01*
X427134Y277842D02*
Y281842D01*
X431134D01*
Y277842D01*
X427134D01*
Y267843D02*
Y271843D01*
X431134D01*
Y267843D01*
X427134D01*
Y247843D02*
Y251842D01*
X431134D01*
Y247843D01*
X427134D01*
Y237842D02*
Y241843D01*
X431134D01*
Y237842D01*
X427134D01*
Y227842D02*
Y231842D01*
X431134D01*
Y227842D01*
X427134D01*
X397134Y217843D02*
Y221843D01*
X401134D01*
Y217843D01*
X397134D01*
Y277842D02*
Y281842D01*
X401134D01*
Y277842D01*
X397134D01*
Y267843D02*
Y271843D01*
X401134D01*
Y267843D01*
X397134D01*
Y257842D02*
Y261842D01*
X401134D01*
Y257842D01*
X397134D01*
Y247843D02*
Y251842D01*
X401134D01*
Y247843D01*
X397134D01*
Y237842D02*
Y241843D01*
X401134D01*
Y237842D01*
X397134D01*
Y227842D02*
Y231842D01*
X401134D01*
Y227842D01*
X397134D01*
Y207842D02*
Y211842D01*
X401134D01*
Y207842D01*
X397134D01*
X427134D02*
Y211842D01*
X431134D01*
Y207842D01*
X427134D01*
Y217843D02*
Y221843D01*
X431134D01*
Y217843D01*
X427134D01*
Y257842D02*
Y261842D01*
X431134D01*
Y257842D01*
X427134D01*
X348000Y208000D02*
Y212000D01*
X352000D01*
Y208000D01*
X348000D01*
Y218000D02*
Y222000D01*
X352000D01*
Y218000D01*
X348000D01*
Y248000D02*
Y252000D01*
X352000D01*
Y248000D01*
X348000D01*
Y228000D02*
Y232000D01*
X352000D01*
Y228000D01*
X348000D01*
Y238000D02*
Y242000D01*
X352000D01*
Y238000D01*
X348000D01*
Y258000D02*
Y262000D01*
X352000D01*
Y258000D01*
X348000D01*
Y268000D02*
Y272000D01*
X352000D01*
Y268000D01*
X348000D01*
Y278000D02*
Y282000D01*
X352000D01*
Y278000D01*
X348000D01*
Y288000D02*
Y292000D01*
X352000D01*
Y288000D01*
X348000D01*
Y298000D02*
Y302000D01*
X352000D01*
Y298000D01*
X348000D01*
Y308000D02*
Y312000D01*
X352000D01*
Y308000D01*
X348000D01*
Y318000D02*
Y322000D01*
X352000D01*
Y318000D01*
X348000D01*
Y338000D02*
Y342000D01*
X352000D01*
Y338000D01*
X348000D01*
Y328000D02*
Y332000D01*
X352000D01*
Y328000D01*
X348000D01*
Y198000D02*
Y202000D01*
X352000D01*
Y198000D01*
X348000D01*
Y188000D02*
Y192000D01*
X352000D01*
Y188000D01*
X348000D01*
Y178000D02*
Y182000D01*
X352000D01*
Y178000D01*
X348000D01*
Y168000D02*
Y172000D01*
X352000D01*
Y168000D01*
X348000D01*
Y158000D02*
Y162000D01*
X352000D01*
Y158000D01*
X348000D01*
Y148000D02*
Y152000D01*
X352000D01*
Y148000D01*
X348000D01*
X228000D02*
Y152000D01*
X232000D01*
Y148000D01*
X228000D01*
Y158000D02*
Y162000D01*
X232000D01*
Y158000D01*
X228000D01*
Y168000D02*
Y172000D01*
X232000D01*
Y168000D01*
X228000D01*
Y178000D02*
Y182000D01*
X232000D01*
Y178000D01*
X228000D01*
Y188000D02*
Y192000D01*
X232000D01*
Y188000D01*
X228000D01*
Y198000D02*
Y202000D01*
X232000D01*
Y198000D01*
X228000D01*
Y328000D02*
Y332000D01*
X232000D01*
Y328000D01*
X228000D01*
Y338000D02*
Y342000D01*
X232000D01*
Y338000D01*
X228000D01*
Y318000D02*
Y322000D01*
X232000D01*
Y318000D01*
X228000D01*
Y308000D02*
Y312000D01*
X232000D01*
Y308000D01*
X228000D01*
Y298000D02*
Y302000D01*
X232000D01*
Y298000D01*
X228000D01*
Y288000D02*
Y292000D01*
X232000D01*
Y288000D01*
X228000D01*
Y278000D02*
Y282000D01*
X232000D01*
Y278000D01*
X228000D01*
Y268000D02*
Y272000D01*
X232000D01*
Y268000D01*
X228000D01*
Y258000D02*
Y262000D01*
X232000D01*
Y258000D01*
X228000D01*
Y238000D02*
Y242000D01*
X232000D01*
Y238000D01*
X228000D01*
Y228000D02*
Y232000D01*
X232000D01*
Y228000D01*
X228000D01*
Y248000D02*
Y252000D01*
X232000D01*
Y248000D01*
X228000D01*
Y218000D02*
Y222000D01*
X232000D01*
Y218000D01*
X228000D01*
Y208000D02*
Y212000D01*
X232000D01*
Y208000D01*
X228000D01*
X258000Y338000D02*
Y342000D01*
X262000D01*
Y338000D01*
X258000D01*
Y328000D02*
Y332000D01*
X262000D01*
Y328000D01*
X258000D01*
Y318000D02*
Y322000D01*
X262000D01*
Y318000D01*
X258000D01*
Y308000D02*
Y312000D01*
X262000D01*
Y308000D01*
X258000D01*
Y298000D02*
Y302000D01*
X262000D01*
Y298000D01*
X258000D01*
Y288000D02*
Y292000D01*
X262000D01*
Y288000D01*
X258000D01*
X318000Y148000D02*
Y152000D01*
X322000D01*
Y148000D01*
X318000D01*
Y158000D02*
Y162000D01*
X322000D01*
Y158000D01*
X318000D01*
Y168000D02*
Y172000D01*
X322000D01*
Y168000D01*
X318000D01*
Y178000D02*
Y182000D01*
X322000D01*
Y178000D01*
X318000D01*
Y218000D02*
Y222000D01*
X322000D01*
Y218000D01*
X318000D01*
Y228000D02*
Y232000D01*
X322000D01*
Y228000D01*
X318000D01*
Y238000D02*
Y242000D01*
X322000D01*
Y238000D01*
X318000D01*
Y248000D02*
Y252000D01*
X322000D01*
Y248000D01*
X318000D01*
Y268000D02*
Y272000D01*
X322000D01*
Y268000D01*
X318000D01*
Y278000D02*
Y282000D01*
X322000D01*
Y278000D01*
X318000D01*
Y288000D02*
Y292000D01*
X322000D01*
Y288000D01*
X318000D01*
Y308000D02*
Y312000D01*
X322000D01*
Y308000D01*
X318000D01*
X258000Y148000D02*
Y152000D01*
X262000D01*
Y148000D01*
X258000D01*
Y158000D02*
Y162000D01*
X262000D01*
Y158000D01*
X258000D01*
Y168000D02*
Y172000D01*
X262000D01*
Y168000D01*
X258000D01*
Y178000D02*
Y182000D01*
X262000D01*
Y178000D01*
X258000D01*
Y188000D02*
Y192000D01*
X262000D01*
Y188000D01*
X258000D01*
Y198000D02*
Y202000D01*
X262000D01*
Y198000D01*
X258000D01*
Y208000D02*
Y212000D01*
X262000D01*
Y208000D01*
X258000D01*
Y258000D02*
Y262000D01*
X262000D01*
Y258000D01*
X258000D01*
Y268000D02*
Y272000D01*
X262000D01*
Y268000D01*
X258000D01*
Y278000D02*
Y282000D01*
X262000D01*
Y278000D01*
X258000D01*
Y248000D02*
Y252000D01*
X262000D01*
Y248000D01*
X258000D01*
Y228000D02*
Y232000D01*
X262000D01*
Y228000D01*
X258000D01*
Y218000D02*
Y222000D01*
X262000D01*
Y218000D01*
X258000D01*
Y238000D02*
Y242000D01*
X262000D01*
Y238000D01*
X258000D01*
X318000Y338000D02*
Y342000D01*
X322000D01*
Y338000D01*
X318000D01*
Y328000D02*
Y332000D01*
X322000D01*
Y328000D01*
X318000D01*
Y318000D02*
Y322000D01*
X322000D01*
Y318000D01*
X318000D01*
Y298000D02*
Y302000D01*
X322000D01*
Y298000D01*
X318000D01*
Y258000D02*
Y262000D01*
X322000D01*
Y258000D01*
X318000D01*
Y208000D02*
Y212000D01*
X322000D01*
Y208000D01*
X318000D01*
Y198000D02*
Y202000D01*
X322000D01*
Y198000D01*
X318000D01*
Y188000D02*
Y192000D01*
X322000D01*
Y188000D01*
X318000D01*
X453999Y251000D02*
Y250000D01*
X455999D01*
Y251000D01*
X456999D01*
Y253000D01*
X455999D01*
Y254000D01*
X453999D01*
Y253000D01*
X452999D01*
Y251000D01*
X453999D01*
X449000Y251000D02*
Y250000D01*
X451000D01*
Y251000D01*
X452000D01*
Y253000D01*
X451000D01*
Y254000D01*
X449000D01*
Y253000D01*
X448000D01*
Y251000D01*
X449000D01*
X459000D02*
Y250000D01*
X461000D01*
Y251000D01*
X462000D01*
Y253000D01*
X461000D01*
Y254000D01*
X459000D01*
Y253000D01*
X458000D01*
Y251000D01*
X459000D01*
Y224000D02*
Y223000D01*
X461000D01*
Y224000D01*
X462000D01*
Y226000D01*
X461000D01*
Y227000D01*
X459000D01*
Y226000D01*
X458000D01*
Y224000D01*
X459000D01*
X449000D02*
Y223000D01*
X451000D01*
Y224000D01*
X452000D01*
Y226000D01*
X451000D01*
Y227000D01*
X449000D01*
Y226000D01*
X448000D01*
Y224000D01*
X449000D01*
X453999Y224000D02*
Y223000D01*
X455999D01*
Y224000D01*
X456999D01*
Y226000D01*
X455999D01*
Y227000D01*
X453999D01*
Y226000D01*
X452999D01*
Y224000D01*
X453999D01*
X408000Y338000D02*
Y342000D01*
X412000D01*
Y338000D01*
X408000D01*
X398000D02*
Y342000D01*
X402000D01*
Y338000D01*
X398000D01*
X418000D02*
Y342000D01*
X422000D01*
Y338000D01*
X418000D01*
X428000D02*
Y342000D01*
X432000D01*
Y338000D01*
X428000D01*
X408000Y318000D02*
Y322000D01*
X412000D01*
Y318000D01*
X408000D01*
X398000D02*
Y322000D01*
X402000D01*
Y318000D01*
X398000D01*
X418000D02*
Y322000D01*
X422000D01*
Y318000D01*
X418000D01*
X428000D02*
Y322000D01*
X432000D01*
Y318000D01*
X428000D01*
Y328000D02*
Y332000D01*
X432000D01*
Y328000D01*
X428000D01*
X418000D02*
Y332000D01*
X422000D01*
Y328000D01*
X418000D01*
X398000D02*
Y332000D01*
X402000D01*
Y328000D01*
X398000D01*
X408000D02*
Y332000D01*
X412000D01*
Y328000D01*
X408000D01*
X428000Y298000D02*
Y302000D01*
X432000D01*
Y298000D01*
X428000D01*
X418000D02*
Y302000D01*
X422000D01*
Y298000D01*
X418000D01*
X398000D02*
Y302000D01*
X402000D01*
Y298000D01*
X398000D01*
X408000D02*
Y302000D01*
X412000D01*
Y298000D01*
X408000D01*
X428000Y308000D02*
Y312000D01*
X432000D01*
Y308000D01*
X428000D01*
X418000D02*
Y312000D01*
X422000D01*
Y308000D01*
X418000D01*
X398000D02*
Y312000D01*
X402000D01*
Y308000D01*
X398000D01*
X408000D02*
Y312000D01*
X412000D01*
Y308000D01*
X408000D01*
X146000Y275000D02*
Y279000D01*
X150000D01*
Y275000D01*
X146000D01*
Y285000D02*
Y289000D01*
X150000D01*
Y285000D01*
X146000D01*
Y305000D02*
Y309000D01*
X150000D01*
Y305000D01*
X146000D01*
Y295000D02*
Y299000D01*
X150000D01*
Y295000D01*
X146000D01*
X435000Y418000D02*
Y422000D01*
X439000D01*
Y418000D01*
X435000D01*
X425000D02*
Y422000D01*
X429000D01*
Y418000D01*
X425000D01*
X369890Y454693D02*
Y458693D01*
X373890D01*
Y454693D01*
X369890D01*
X379890D02*
Y458693D01*
X383890D01*
Y454693D01*
X379890D01*
X359890D02*
Y458693D01*
X363890D01*
Y454693D01*
X359890D01*
X349890D02*
Y458693D01*
X353890D01*
Y454693D01*
X349890D01*
X323000Y454000D02*
Y458000D01*
X327000D01*
Y454000D01*
X323000D01*
X313000D02*
Y458000D01*
X317000D01*
Y454000D01*
X313000D01*
X263000D02*
Y458000D01*
X267000D01*
Y454000D01*
X263000D01*
X253000D02*
Y458000D01*
X257000D01*
Y454000D01*
X253000D01*
X273000D02*
Y458000D01*
X277000D01*
Y454000D01*
X273000D01*
X283000D02*
Y458000D01*
X287000D01*
Y454000D01*
X283000D01*
X293000D02*
Y458000D01*
X297000D01*
Y454000D01*
X293000D01*
X303000D02*
Y458000D01*
X307000D01*
Y454000D01*
X303000D01*
X188000Y305000D02*
X189000Y307000D01*
X188000Y309000D01*
X190000Y308000D01*
X192000Y309000D01*
X191000Y307000D01*
X192000Y305000D01*
X190000Y306000D01*
X188000Y305000D01*
Y295000D02*
X189000Y297000D01*
X188000Y299000D01*
X190000Y298000D01*
X192000Y299000D01*
X191000Y297000D01*
X192000Y295000D01*
X190000Y296000D01*
X188000Y295000D01*
X313000Y390000D02*
X314000Y391000D01*
X315000D01*
X314000Y392000D01*
X315000Y393000D01*
X314000D01*
X313000Y394000D01*
X312000Y393000D01*
X311000D01*
X312000Y392000D01*
X311000Y391000D01*
X312000D01*
X313000Y390000D01*
Y388000D02*
X314000Y389000D01*
X315000D01*
X314000Y390000D01*
X315000Y391000D01*
X314000D01*
X313000Y392000D01*
X312000Y391000D01*
X311000D01*
X312000Y390000D01*
X311000Y389000D01*
X312000D01*
X313000Y388000D01*
X311000Y390000D02*
X312000Y391000D01*
X313000D01*
X312000Y392000D01*
X313000Y393000D01*
X312000D01*
X311000Y394000D01*
X310000Y393000D01*
X309000D01*
X310000Y392000D01*
X309000Y391000D01*
X310000D01*
X311000Y390000D01*
Y388000D02*
X312000Y389000D01*
X313000D01*
X312000Y390000D01*
X313000Y391000D01*
X312000D01*
X311000Y392000D01*
X310000Y391000D01*
X309000D01*
X310000Y390000D01*
X309000Y389000D01*
X310000D01*
X311000Y388000D01*
X457000Y349000D02*
X458000Y350000D01*
X459000D01*
X458000Y351000D01*
X459000Y352000D01*
X458000D01*
X457000Y353000D01*
X456000Y352000D01*
X455000D01*
X456000Y351000D01*
X455000Y350000D01*
X456000D01*
X457000Y349000D01*
X459000D02*
X460000Y350000D01*
X461000D01*
X460000Y351000D01*
X461000Y352000D01*
X460000D01*
X459000Y353000D01*
X458000Y352000D01*
X457000D01*
X458000Y351000D01*
X457000Y350000D01*
X458000D01*
X459000Y349000D01*
Y347000D02*
X460000Y348000D01*
X461000D01*
X460000Y349000D01*
X461000Y350000D01*
X460000D01*
X459000Y351000D01*
X458000Y350000D01*
X457000D01*
X458000Y349000D01*
X457000Y348000D01*
X458000D01*
X459000Y347000D01*
X457000D02*
X458000Y348000D01*
X459000D01*
X458000Y349000D01*
X459000Y350000D01*
X458000D01*
X457000Y351000D01*
X456000Y350000D01*
X455000D01*
X456000Y349000D01*
X455000Y348000D01*
X456000D01*
X457000Y347000D01*
X381000Y342000D02*
X382000Y343000D01*
X383000D01*
X382000Y344000D01*
X383000Y345000D01*
X382000D01*
X381000Y346000D01*
X380000Y345000D01*
X379000D01*
X380000Y344000D01*
X379000Y343000D01*
X380000D01*
X381000Y342000D01*
X383000D02*
X384000Y343000D01*
X385000D01*
X384000Y344000D01*
X385000Y345000D01*
X384000D01*
X383000Y346000D01*
X382000Y345000D01*
X381000D01*
X382000Y344000D01*
X381000Y343000D01*
X382000D01*
X383000Y342000D01*
Y340000D02*
X384000Y341000D01*
X385000D01*
X384000Y342000D01*
X385000Y343000D01*
X384000D01*
X383000Y344000D01*
X382000Y343000D01*
X381000D01*
X382000Y342000D01*
X381000Y341000D01*
X382000D01*
X383000Y340000D01*
X381000D02*
X382000Y341000D01*
X383000D01*
X382000Y342000D01*
X383000Y343000D01*
X382000D01*
X381000Y344000D01*
X380000Y343000D01*
X379000D01*
X380000Y342000D01*
X379000Y341000D01*
X380000D01*
X381000Y340000D01*
X334000Y459000D02*
X335000Y460000D01*
X336000D01*
X335000Y461000D01*
X336000Y462000D01*
X335000D01*
X334000Y463000D01*
X333000Y462000D01*
X332000D01*
X333000Y461000D01*
X332000Y460000D01*
X333000D01*
X334000Y459000D01*
X336000D02*
X337000Y460000D01*
X338000D01*
X337000Y461000D01*
X338000Y462000D01*
X337000D01*
X336000Y463000D01*
X335000Y462000D01*
X334000D01*
X335000Y461000D01*
X334000Y460000D01*
X335000D01*
X336000Y459000D01*
Y457000D02*
X337000Y458000D01*
X338000D01*
X337000Y459000D01*
X338000Y460000D01*
X337000D01*
X336000Y461000D01*
X335000Y460000D01*
X334000D01*
X335000Y459000D01*
X334000Y458000D01*
X335000D01*
X336000Y457000D01*
X334000D02*
X335000Y458000D01*
X336000D01*
X335000Y459000D01*
X336000Y460000D01*
X335000D01*
X334000Y461000D01*
X333000Y460000D01*
X332000D01*
X333000Y459000D01*
X332000Y458000D01*
X333000D01*
X334000Y457000D01*
X127000Y381000D02*
X128000Y382000D01*
X129000D01*
X128000Y383000D01*
X129000Y384000D01*
X128000D01*
X127000Y385000D01*
X126000Y384000D01*
X125000D01*
X126000Y383000D01*
X125000Y382000D01*
X126000D01*
X127000Y381000D01*
X129000D02*
X130000Y382000D01*
X131000D01*
X130000Y383000D01*
X131000Y384000D01*
X130000D01*
X129000Y385000D01*
X128000Y384000D01*
X127000D01*
X128000Y383000D01*
X127000Y382000D01*
X128000D01*
X129000Y381000D01*
Y379000D02*
X130000Y380000D01*
X131000D01*
X130000Y381000D01*
X131000Y382000D01*
X130000D01*
X129000Y383000D01*
X128000Y382000D01*
X127000D01*
X128000Y381000D01*
X127000Y380000D01*
X128000D01*
X129000Y379000D01*
X127000D02*
X128000Y380000D01*
X129000D01*
X128000Y381000D01*
X129000Y382000D01*
X128000D01*
X127000Y383000D01*
X126000Y382000D01*
X125000D01*
X126000Y381000D01*
X125000Y380000D01*
X126000D01*
X127000Y379000D01*
X184000Y263000D02*
X185000Y264000D01*
X186000D01*
X185000Y265000D01*
X186000Y266000D01*
X185000D01*
X184000Y267000D01*
X183000Y266000D01*
X182000D01*
X183000Y265000D01*
X182000Y264000D01*
X183000D01*
X184000Y263000D01*
X186000D02*
X187000Y264000D01*
X188000D01*
X187000Y265000D01*
X188000Y266000D01*
X187000D01*
X186000Y267000D01*
X185000Y266000D01*
X184000D01*
X185000Y265000D01*
X184000Y264000D01*
X185000D01*
X186000Y263000D01*
Y261000D02*
X187000Y262000D01*
X188000D01*
X187000Y263000D01*
X188000Y264000D01*
X187000D01*
X186000Y265000D01*
X185000Y264000D01*
X184000D01*
X185000Y263000D01*
X184000Y262000D01*
X185000D01*
X186000Y261000D01*
X184000D02*
X185000Y262000D01*
X186000D01*
X185000Y263000D01*
X186000Y264000D01*
X185000D01*
X184000Y265000D01*
X183000Y264000D01*
X182000D01*
X183000Y263000D01*
X182000Y262000D01*
X183000D01*
X184000Y261000D01*
X128000Y248000D02*
X129000Y249000D01*
X130000D01*
X129000Y250000D01*
X130000Y251000D01*
X129000D01*
X128000Y252000D01*
X127000Y251000D01*
X126000D01*
X127000Y250000D01*
X126000Y249000D01*
X127000D01*
X128000Y248000D01*
X130000D02*
X131000Y249000D01*
X132000D01*
X131000Y250000D01*
X132000Y251000D01*
X131000D01*
X130000Y252000D01*
X129000Y251000D01*
X128000D01*
X129000Y250000D01*
X128000Y249000D01*
X129000D01*
X130000Y248000D01*
Y246000D02*
X131000Y247000D01*
X132000D01*
X131000Y248000D01*
X132000Y249000D01*
X131000D01*
X130000Y250000D01*
X129000Y249000D01*
X128000D01*
X129000Y248000D01*
X128000Y247000D01*
X129000D01*
X130000Y246000D01*
X128000D02*
X129000Y247000D01*
X130000D01*
X129000Y248000D01*
X130000Y249000D01*
X129000D01*
X128000Y250000D01*
X127000Y249000D01*
X126000D01*
X127000Y248000D01*
X126000Y247000D01*
X127000D01*
X128000Y246000D01*
X183000Y181000D02*
X184000Y182000D01*
X185000D01*
X184000Y183000D01*
X185000Y184000D01*
X184000D01*
X183000Y185000D01*
X182000Y184000D01*
X181000D01*
X182000Y183000D01*
X181000Y182000D01*
X182000D01*
X183000Y181000D01*
X185000D02*
X186000Y182000D01*
X187000D01*
X186000Y183000D01*
X187000Y184000D01*
X186000D01*
X185000Y185000D01*
X184000Y184000D01*
X183000D01*
X184000Y183000D01*
X183000Y182000D01*
X184000D01*
X185000Y181000D01*
Y179000D02*
X186000Y180000D01*
X187000D01*
X186000Y181000D01*
X187000Y182000D01*
X186000D01*
X185000Y183000D01*
X184000Y182000D01*
X183000D01*
X184000Y181000D01*
X183000Y180000D01*
X184000D01*
X185000Y179000D01*
X183000D02*
X184000Y180000D01*
X185000D01*
X184000Y181000D01*
X185000Y182000D01*
X184000D01*
X183000Y183000D01*
X182000Y182000D01*
X181000D01*
X182000Y181000D01*
X181000Y180000D01*
X182000D01*
X183000Y179000D01*
X383000Y178000D02*
X384000Y179000D01*
X385000D01*
X384000Y180000D01*
X385000Y181000D01*
X384000D01*
X383000Y182000D01*
X382000Y181000D01*
X381000D01*
X382000Y180000D01*
X381000Y179000D01*
X382000D01*
X383000Y178000D01*
X385000D02*
X386000Y179000D01*
X387000D01*
X386000Y180000D01*
X387000Y181000D01*
X386000D01*
X385000Y182000D01*
X384000Y181000D01*
X383000D01*
X384000Y180000D01*
X383000Y179000D01*
X384000D01*
X385000Y178000D01*
Y176000D02*
X386000Y177000D01*
X387000D01*
X386000Y178000D01*
X387000Y179000D01*
X386000D01*
X385000Y180000D01*
X384000Y179000D01*
X383000D01*
X384000Y178000D01*
X383000Y177000D01*
X384000D01*
X385000Y176000D01*
X383000D02*
X384000Y177000D01*
X385000D01*
X384000Y178000D01*
X385000Y179000D01*
X384000D01*
X383000Y180000D01*
X382000Y179000D01*
X381000D01*
X382000Y178000D01*
X381000Y177000D01*
X382000D01*
X383000Y176000D01*
X389000Y216000D02*
X390000Y217000D01*
X391000D01*
X390000Y218000D01*
X391000Y219000D01*
X390000D01*
X389000Y220000D01*
X388000Y219000D01*
X387000D01*
X388000Y218000D01*
X387000Y217000D01*
X388000D01*
X389000Y216000D01*
X391000D02*
X392000Y217000D01*
X393000D01*
X392000Y218000D01*
X393000Y219000D01*
X392000D01*
X391000Y220000D01*
X390000Y219000D01*
X389000D01*
X390000Y218000D01*
X389000Y217000D01*
X390000D01*
X391000Y216000D01*
Y214000D02*
X392000Y215000D01*
X393000D01*
X392000Y216000D01*
X393000Y217000D01*
X392000D01*
X391000Y218000D01*
X390000Y217000D01*
X389000D01*
X390000Y216000D01*
X389000Y215000D01*
X390000D01*
X391000Y214000D01*
X389000D02*
X390000Y215000D01*
X391000D01*
X390000Y216000D01*
X391000Y217000D01*
X390000D01*
X389000Y218000D01*
X388000Y217000D01*
X387000D01*
X388000Y216000D01*
X387000Y215000D01*
X388000D01*
X389000Y214000D01*
X396000Y410000D02*
X397000Y411000D01*
X398000D01*
X397000Y412000D01*
X398000Y413000D01*
X397000D01*
X396000Y414000D01*
X395000Y413000D01*
X394000D01*
X395000Y412000D01*
X394000Y411000D01*
X395000D01*
X396000Y410000D01*
X398000D02*
X399000Y411000D01*
X400000D01*
X399000Y412000D01*
X400000Y413000D01*
X399000D01*
X398000Y414000D01*
X397000Y413000D01*
X396000D01*
X397000Y412000D01*
X396000Y411000D01*
X397000D01*
X398000Y410000D01*
Y412000D02*
X399000Y413000D01*
X400000D01*
X399000Y414000D01*
X400000Y415000D01*
X399000D01*
X398000Y416000D01*
X397000Y415000D01*
X396000D01*
X397000Y414000D01*
X396000Y413000D01*
X397000D01*
X398000Y412000D01*
X396000D02*
X397000Y413000D01*
X398000D01*
X397000Y414000D01*
X398000Y415000D01*
X397000D01*
X396000Y416000D01*
X395000Y415000D01*
X394000D01*
X395000Y414000D01*
X394000Y413000D01*
X395000D01*
X396000Y412000D01*
X284743Y156257D02*
X282743Y160257D01*
X286743D01*
X284743Y156257D01*
X299000Y441000D02*
X300000Y443000D01*
X299000Y445000D01*
X301000Y444000D01*
X303000Y445000D01*
X302000Y443000D01*
X303000Y441000D01*
X301000Y442000D01*
X299000Y441000D01*
X288000Y429000D02*
X289000Y431000D01*
X288000Y433000D01*
X290000Y432000D01*
X292000Y433000D01*
X291000Y431000D01*
X292000Y429000D01*
X290000Y430000D01*
X288000Y429000D01*
X195000Y184000D02*
X196000Y186000D01*
X195000Y188000D01*
X197000Y187000D01*
X199000Y188000D01*
X198000Y186000D01*
X199000Y184000D01*
X197000Y185000D01*
X195000Y184000D01*
X368158Y277842D02*
X369158Y279842D01*
X368158Y281842D01*
X370158Y280842D01*
X372158Y281842D01*
X371158Y279842D01*
X372158Y277842D01*
X370158Y278842D01*
X368158Y277842D01*
X362000Y213000D02*
X363000Y215000D01*
X362000Y217000D01*
X364000Y216000D01*
X366000Y217000D01*
X365000Y215000D01*
X366000Y213000D01*
X364000Y214000D01*
X362000Y213000D01*
Y202000D02*
X363000Y204000D01*
X362000Y206000D01*
X364000Y205000D01*
X366000Y206000D01*
X365000Y204000D01*
X366000Y202000D01*
X364000Y203000D01*
X362000Y202000D01*
X381000Y208000D02*
X382000Y210000D01*
X381000Y212000D01*
X383000Y211000D01*
X385000Y212000D01*
X384000Y210000D01*
X385000Y208000D01*
X383000Y209000D01*
X381000Y208000D01*
X419000Y226000D02*
X420000Y228000D01*
X419000Y230000D01*
X421000Y229000D01*
X423000Y230000D01*
X422000Y228000D01*
X423000Y226000D01*
X421000Y227000D01*
X419000Y226000D01*
X391000Y197000D02*
X392000Y199000D01*
X391000Y201000D01*
X393000Y200000D01*
X395000Y201000D01*
X394000Y199000D01*
X395000Y197000D01*
X393000Y198000D01*
X391000Y197000D01*
X458000Y211000D02*
X459000Y213000D01*
X458000Y215000D01*
X460000Y214000D01*
X462000Y215000D01*
X461000Y213000D01*
X462000Y211000D01*
X460000Y212000D01*
X458000Y211000D01*
X413000Y197000D02*
X414000Y199000D01*
X413000Y201000D01*
X415000Y200000D01*
X417000Y201000D01*
X416000Y199000D01*
X417000Y197000D01*
X415000Y198000D01*
X413000Y197000D01*
X376000Y218000D02*
X377000Y220000D01*
X376000Y222000D01*
X378000Y221000D01*
X380000Y222000D01*
X379000Y220000D01*
X380000Y218000D01*
X378000Y219000D01*
X376000Y218000D01*
X413000Y282000D02*
X414000Y284000D01*
X413000Y286000D01*
X415000Y285000D01*
X417000Y286000D01*
X416000Y284000D01*
X417000Y282000D01*
X415000Y283000D01*
X413000Y282000D01*
X417000Y201000D02*
X418000Y203000D01*
X417000Y205000D01*
X419000Y204000D01*
X421000Y205000D01*
X420000Y203000D01*
X421000Y201000D01*
X419000Y202000D01*
X417000Y201000D01*
X448000Y204000D02*
X449000Y206000D01*
X448000Y208000D01*
X450000Y207000D01*
X452000Y208000D01*
X451000Y206000D01*
X452000Y204000D01*
X450000Y205000D01*
X448000Y204000D01*
X440000Y208000D02*
X441000Y210000D01*
X440000Y212000D01*
X442000Y211000D01*
X444000Y212000D01*
X443000Y210000D01*
X444000Y208000D01*
X442000Y209000D01*
X440000Y208000D01*
X378500Y287000D02*
X379500Y289000D01*
X378500Y291000D01*
X380500Y290000D01*
X382500Y291000D01*
X381500Y289000D01*
X382500Y287000D01*
X380500Y288000D01*
X378500Y287000D01*
X385500D02*
X386500Y289000D01*
X385500Y291000D01*
X387500Y290000D01*
X389500Y291000D01*
X388500Y289000D01*
X389500Y287000D01*
X387500Y288000D01*
X385500Y287000D01*
X382000D02*
X383000Y289000D01*
X382000Y291000D01*
X384000Y290000D01*
X386000Y291000D01*
X385000Y289000D01*
X386000Y287000D01*
X384000Y288000D01*
X382000Y287000D01*
X389000D02*
X390000Y289000D01*
X389000Y291000D01*
X391000Y290000D01*
X393000Y291000D01*
X392000Y289000D01*
X393000Y287000D01*
X391000Y288000D01*
X389000Y287000D01*
X402000Y286000D02*
X403000Y288000D01*
X402000Y290000D01*
X404000Y289000D01*
X406000Y290000D01*
X405000Y288000D01*
X406000Y286000D01*
X404000Y287000D01*
X402000Y286000D01*
D32*
X139795Y452756D02*
G03*
X139795Y452756I-2000J0D01*
G01*
Y137795D02*
G03*
X139795Y137795I-2000J0D01*
G01*
X454756D02*
G03*
X454756Y137795I-2000J0D01*
G01*
Y452756D02*
G03*
X454756Y452756I-2000J0D01*
G01*
X261500Y410000D02*
G03*
X261500Y410000I-2000J0D01*
G01*
X322000D02*
G03*
X322000Y410000I-2000J0D01*
G01*
M02*
