G04*
G04 #@! TF.GenerationSoftware,Altium Limited,Altium Designer,24.0.1 (36)*
G04*
G04 Layer_Color=128*
%FSLAX25Y25*%
%MOIN*%
G70*
G04*
G04 #@! TF.SameCoordinates,67FC8AF9-9308-4AD8-ABDD-2333FC6696B3*
G04*
G04*
G04 #@! TF.FilePolarity,Positive*
G04*
G01*
G75*
%ADD31C,0.00500*%
D31*
X186500Y205000D02*
X189500D01*
X188000Y203500D02*
Y206500D01*
X176500Y205000D02*
X179500D01*
X178000Y203500D02*
Y206500D01*
X166500Y205000D02*
X169500D01*
X168000Y203500D02*
Y206500D01*
X156500Y205000D02*
X159500D01*
X158000Y203500D02*
Y206500D01*
X136500Y205000D02*
X139500D01*
X138000Y203500D02*
Y206500D01*
X146500Y205000D02*
X149500D01*
X148000Y203500D02*
Y206500D01*
X360500Y410000D02*
X363500D01*
X362000Y408500D02*
Y411500D01*
X370500Y410000D02*
X373500D01*
X372000Y408500D02*
Y411500D01*
X350500Y410000D02*
X353500D01*
X352000Y408500D02*
Y411500D01*
X152500Y247000D02*
X155500D01*
X154000Y245500D02*
Y248500D01*
X142500Y247000D02*
X145500D01*
X144000Y245500D02*
Y248500D01*
X162500Y247000D02*
X165500D01*
X164000Y245500D02*
Y248500D01*
X181500Y415000D02*
X184500D01*
X183000Y413500D02*
Y416500D01*
X161500Y415000D02*
X164500D01*
X163000Y413500D02*
Y416500D01*
X171500Y415000D02*
X174500D01*
X173000Y413500D02*
Y416500D01*
X171500Y375000D02*
X174500D01*
X173000Y373500D02*
Y376500D01*
X161500Y375000D02*
X164500D01*
X163000Y373500D02*
Y376500D01*
X181500Y375000D02*
X184500D01*
X183000Y373500D02*
Y376500D01*
X171500Y405000D02*
X174500D01*
X173000Y403500D02*
Y406500D01*
X161500Y405000D02*
X164500D01*
X163000Y403500D02*
Y406500D01*
X181500Y405000D02*
X184500D01*
X183000Y403500D02*
Y406500D01*
X181500Y365000D02*
X184500D01*
X183000Y363500D02*
Y366500D01*
X161500Y365000D02*
X164500D01*
X163000Y363500D02*
Y366500D01*
X171500Y365000D02*
X174500D01*
X173000Y363500D02*
Y366500D01*
X181500Y355000D02*
X184500D01*
X183000Y353500D02*
Y356500D01*
X171500Y355000D02*
X174500D01*
X173000Y353500D02*
Y356500D01*
X161500Y355000D02*
X164500D01*
X163000Y353500D02*
Y356500D01*
X181500Y395000D02*
X184500D01*
X183000Y393500D02*
Y396500D01*
X161500Y395000D02*
X164500D01*
X163000Y393500D02*
Y396500D01*
X171500Y395000D02*
X174500D01*
X173000Y393500D02*
Y396500D01*
X181500Y345000D02*
X184500D01*
X183000Y343500D02*
Y346500D01*
X161500Y345000D02*
X164500D01*
X163000Y343500D02*
Y346500D01*
X171500Y345000D02*
X174500D01*
X173000Y343500D02*
Y346500D01*
X181500Y385000D02*
X184500D01*
X183000Y383500D02*
Y386500D01*
X161500Y385000D02*
X164500D01*
X163000Y383500D02*
Y386500D01*
X171500Y385000D02*
X174500D01*
X173000Y383500D02*
Y386500D01*
X441571Y161417D02*
X444571D01*
X443071Y159917D02*
Y162917D01*
X431571Y161417D02*
X434571D01*
X433071Y159917D02*
Y162917D01*
X421571Y161417D02*
X424571D01*
X423071Y159917D02*
Y162917D01*
X411571Y161417D02*
X414571D01*
X413071Y159917D02*
Y162917D01*
X401571Y161417D02*
X404571D01*
X403071Y159917D02*
Y162917D01*
X381571Y191417D02*
X384571D01*
X383071Y189917D02*
Y192917D01*
X441571Y191417D02*
X444571D01*
X443071Y189917D02*
Y192917D01*
X431571Y191417D02*
X434571D01*
X433071Y189917D02*
Y192917D01*
X421571Y191417D02*
X424571D01*
X423071Y189917D02*
Y192917D01*
X411571Y191417D02*
X414571D01*
X413071Y189917D02*
Y192917D01*
X401571Y191417D02*
X404571D01*
X403071Y189917D02*
Y192917D01*
X391571Y191417D02*
X394571D01*
X393071Y189917D02*
Y192917D01*
X381571Y161417D02*
X384571D01*
X383071Y159917D02*
Y162917D01*
X391571Y161417D02*
X394571D01*
X393071Y159917D02*
Y162917D01*
X427634Y279842D02*
X430634D01*
X429134Y278343D02*
Y281343D01*
X427634Y269843D02*
X430634D01*
X429134Y268342D02*
Y271342D01*
X427634Y249843D02*
X430634D01*
X429134Y248342D02*
Y251343D01*
X427634Y239843D02*
X430634D01*
X429134Y238342D02*
Y241342D01*
X427634Y229842D02*
X430634D01*
X429134Y228343D02*
Y231343D01*
X397634Y219843D02*
X400634D01*
X399134Y218342D02*
Y221342D01*
X397634Y279842D02*
X400634D01*
X399134Y278343D02*
Y281343D01*
X397634Y269843D02*
X400634D01*
X399134Y268342D02*
Y271342D01*
X397634Y259842D02*
X400634D01*
X399134Y258343D02*
Y261343D01*
X397634Y249843D02*
X400634D01*
X399134Y248342D02*
Y251343D01*
X397634Y239843D02*
X400634D01*
X399134Y238342D02*
Y241342D01*
X397634Y229842D02*
X400634D01*
X399134Y228343D02*
Y231343D01*
X397634Y209842D02*
X400634D01*
X399134Y208343D02*
Y211343D01*
X427634Y209842D02*
X430634D01*
X429134Y208343D02*
Y211343D01*
X427634Y219843D02*
X430634D01*
X429134Y218342D02*
Y221342D01*
X427634Y259842D02*
X430634D01*
X429134Y258343D02*
Y261343D01*
X348500Y210000D02*
X351500D01*
X350000Y208500D02*
Y211500D01*
X348500Y220000D02*
X351500D01*
X350000Y218500D02*
Y221500D01*
X348500Y250000D02*
X351500D01*
X350000Y248500D02*
Y251500D01*
X348500Y230000D02*
X351500D01*
X350000Y228500D02*
Y231500D01*
X348500Y240000D02*
X351500D01*
X350000Y238500D02*
Y241500D01*
X348500Y260000D02*
X351500D01*
X350000Y258500D02*
Y261500D01*
X348500Y270000D02*
X351500D01*
X350000Y268500D02*
Y271500D01*
X348500Y280000D02*
X351500D01*
X350000Y278500D02*
Y281500D01*
X348500Y290000D02*
X351500D01*
X350000Y288500D02*
Y291500D01*
X348500Y300000D02*
X351500D01*
X350000Y298500D02*
Y301500D01*
X348500Y310000D02*
X351500D01*
X350000Y308500D02*
Y311500D01*
X348500Y320000D02*
X351500D01*
X350000Y318500D02*
Y321500D01*
X348500Y340000D02*
X351500D01*
X350000Y338500D02*
Y341500D01*
X348500Y330000D02*
X351500D01*
X350000Y328500D02*
Y331500D01*
X348500Y200000D02*
X351500D01*
X350000Y198500D02*
Y201500D01*
X348500Y190000D02*
X351500D01*
X350000Y188500D02*
Y191500D01*
X348500Y180000D02*
X351500D01*
X350000Y178500D02*
Y181500D01*
X348500Y170000D02*
X351500D01*
X350000Y168500D02*
Y171500D01*
X348500Y160000D02*
X351500D01*
X350000Y158500D02*
Y161500D01*
X348500Y150000D02*
X351500D01*
X350000Y148500D02*
Y151500D01*
X228500Y150000D02*
X231500D01*
X230000Y148500D02*
Y151500D01*
X228500Y160000D02*
X231500D01*
X230000Y158500D02*
Y161500D01*
X228500Y170000D02*
X231500D01*
X230000Y168500D02*
Y171500D01*
X228500Y180000D02*
X231500D01*
X230000Y178500D02*
Y181500D01*
X228500Y190000D02*
X231500D01*
X230000Y188500D02*
Y191500D01*
X228500Y200000D02*
X231500D01*
X230000Y198500D02*
Y201500D01*
X228500Y330000D02*
X231500D01*
X230000Y328500D02*
Y331500D01*
X228500Y340000D02*
X231500D01*
X230000Y338500D02*
Y341500D01*
X228500Y320000D02*
X231500D01*
X230000Y318500D02*
Y321500D01*
X228500Y310000D02*
X231500D01*
X230000Y308500D02*
Y311500D01*
X228500Y300000D02*
X231500D01*
X230000Y298500D02*
Y301500D01*
X228500Y290000D02*
X231500D01*
X230000Y288500D02*
Y291500D01*
X228500Y280000D02*
X231500D01*
X230000Y278500D02*
Y281500D01*
X228500Y270000D02*
X231500D01*
X230000Y268500D02*
Y271500D01*
X228500Y260000D02*
X231500D01*
X230000Y258500D02*
Y261500D01*
X228500Y240000D02*
X231500D01*
X230000Y238500D02*
Y241500D01*
X228500Y230000D02*
X231500D01*
X230000Y228500D02*
Y231500D01*
X228500Y250000D02*
X231500D01*
X230000Y248500D02*
Y251500D01*
X228500Y220000D02*
X231500D01*
X230000Y218500D02*
Y221500D01*
X228500Y210000D02*
X231500D01*
X230000Y208500D02*
Y211500D01*
X258500Y340000D02*
X261500D01*
X260000Y338500D02*
Y341500D01*
X258500Y330000D02*
X261500D01*
X260000Y328500D02*
Y331500D01*
X258500Y320000D02*
X261500D01*
X260000Y318500D02*
Y321500D01*
X258500Y310000D02*
X261500D01*
X260000Y308500D02*
Y311500D01*
X258500Y300000D02*
X261500D01*
X260000Y298500D02*
Y301500D01*
X258500Y290000D02*
X261500D01*
X260000Y288500D02*
Y291500D01*
X318500Y150000D02*
X321500D01*
X320000Y148500D02*
Y151500D01*
X318500Y160000D02*
X321500D01*
X320000Y158500D02*
Y161500D01*
X318500Y170000D02*
X321500D01*
X320000Y168500D02*
Y171500D01*
X318500Y180000D02*
X321500D01*
X320000Y178500D02*
Y181500D01*
X318500Y220000D02*
X321500D01*
X320000Y218500D02*
Y221500D01*
X318500Y230000D02*
X321500D01*
X320000Y228500D02*
Y231500D01*
X318500Y240000D02*
X321500D01*
X320000Y238500D02*
Y241500D01*
X318500Y250000D02*
X321500D01*
X320000Y248500D02*
Y251500D01*
X318500Y270000D02*
X321500D01*
X320000Y268500D02*
Y271500D01*
X318500Y280000D02*
X321500D01*
X320000Y278500D02*
Y281500D01*
X318500Y290000D02*
X321500D01*
X320000Y288500D02*
Y291500D01*
X318500Y310000D02*
X321500D01*
X320000Y308500D02*
Y311500D01*
X258500Y150000D02*
X261500D01*
X260000Y148500D02*
Y151500D01*
X258500Y160000D02*
X261500D01*
X260000Y158500D02*
Y161500D01*
X258500Y170000D02*
X261500D01*
X260000Y168500D02*
Y171500D01*
X258500Y180000D02*
X261500D01*
X260000Y178500D02*
Y181500D01*
X258500Y190000D02*
X261500D01*
X260000Y188500D02*
Y191500D01*
X258500Y200000D02*
X261500D01*
X260000Y198500D02*
Y201500D01*
X258500Y210000D02*
X261500D01*
X260000Y208500D02*
Y211500D01*
X258500Y260000D02*
X261500D01*
X260000Y258500D02*
Y261500D01*
X258500Y270000D02*
X261500D01*
X260000Y268500D02*
Y271500D01*
X258500Y280000D02*
X261500D01*
X260000Y278500D02*
Y281500D01*
X258500Y250000D02*
X261500D01*
X260000Y248500D02*
Y251500D01*
X258500Y230000D02*
X261500D01*
X260000Y228500D02*
Y231500D01*
X258500Y220000D02*
X261500D01*
X260000Y218500D02*
Y221500D01*
X258500Y240000D02*
X261500D01*
X260000Y238500D02*
Y241500D01*
X318500Y340000D02*
X321500D01*
X320000Y338500D02*
Y341500D01*
X318500Y330000D02*
X321500D01*
X320000Y328500D02*
Y331500D01*
X318500Y320000D02*
X321500D01*
X320000Y318500D02*
Y321500D01*
X318500Y300000D02*
X321500D01*
X320000Y298500D02*
Y301500D01*
X318500Y260000D02*
X321500D01*
X320000Y258500D02*
Y261500D01*
X318500Y210000D02*
X321500D01*
X320000Y208500D02*
Y211500D01*
X318500Y200000D02*
X321500D01*
X320000Y198500D02*
Y201500D01*
X318500Y190000D02*
X321500D01*
X320000Y188500D02*
Y191500D01*
X453899Y252000D02*
X456099D01*
X454999Y250900D02*
Y253100D01*
X448900Y252000D02*
X451100D01*
X450000Y250900D02*
Y253100D01*
X458900Y252000D02*
X461100D01*
X460000Y250900D02*
Y253100D01*
X458900Y225000D02*
X461100D01*
X460000Y223900D02*
Y226100D01*
X448900Y225000D02*
X451100D01*
X450000Y223900D02*
Y226100D01*
X453899Y225000D02*
X456099D01*
X454999Y223900D02*
Y226100D01*
X408500Y340000D02*
X411500D01*
X410000Y338500D02*
Y341500D01*
X398500Y340000D02*
X401500D01*
X400000Y338500D02*
Y341500D01*
X418500Y340000D02*
X421500D01*
X420000Y338500D02*
Y341500D01*
X428500Y340000D02*
X431500D01*
X430000Y338500D02*
Y341500D01*
X408500Y320000D02*
X411500D01*
X410000Y318500D02*
Y321500D01*
X398500Y320000D02*
X401500D01*
X400000Y318500D02*
Y321500D01*
X418500Y320000D02*
X421500D01*
X420000Y318500D02*
Y321500D01*
X428500Y320000D02*
X431500D01*
X430000Y318500D02*
Y321500D01*
X428500Y330000D02*
X431500D01*
X430000Y328500D02*
Y331500D01*
X418500Y330000D02*
X421500D01*
X420000Y328500D02*
Y331500D01*
X398500Y330000D02*
X401500D01*
X400000Y328500D02*
Y331500D01*
X408500Y330000D02*
X411500D01*
X410000Y328500D02*
Y331500D01*
X428500Y300000D02*
X431500D01*
X430000Y298500D02*
Y301500D01*
X418500Y300000D02*
X421500D01*
X420000Y298500D02*
Y301500D01*
X398500Y300000D02*
X401500D01*
X400000Y298500D02*
Y301500D01*
X408500Y300000D02*
X411500D01*
X410000Y298500D02*
Y301500D01*
X428500Y310000D02*
X431500D01*
X430000Y308500D02*
Y311500D01*
X418500Y310000D02*
X421500D01*
X420000Y308500D02*
Y311500D01*
X398500Y310000D02*
X401500D01*
X400000Y308500D02*
Y311500D01*
X408500Y310000D02*
X411500D01*
X410000Y308500D02*
Y311500D01*
X146500Y277000D02*
X149500D01*
X148000Y275500D02*
Y278500D01*
X146500Y287000D02*
X149500D01*
X148000Y285500D02*
Y288500D01*
X146500Y307000D02*
X149500D01*
X148000Y305500D02*
Y308500D01*
X146500Y297000D02*
X149500D01*
X148000Y295500D02*
Y298500D01*
X131890Y452756D02*
X143701D01*
X137795Y446850D02*
Y458661D01*
X435500Y420000D02*
X438500D01*
X437000Y418500D02*
Y421500D01*
X425500Y420000D02*
X428500D01*
X427000Y418500D02*
Y421500D01*
X370390Y456693D02*
X373390D01*
X371890Y455193D02*
Y458193D01*
X380390Y456693D02*
X383390D01*
X381890Y455193D02*
Y458193D01*
X360390Y456693D02*
X363390D01*
X361890Y455193D02*
Y458193D01*
X350390Y456693D02*
X353390D01*
X351890Y455193D02*
Y458193D01*
X131890Y137795D02*
X143701D01*
X137795Y131890D02*
Y143701D01*
X446850Y137795D02*
X458661D01*
X452756Y131890D02*
Y143701D01*
X446850Y452756D02*
X458661D01*
X452756Y446850D02*
Y458661D01*
X253594Y410000D02*
X265406D01*
X259500Y404095D02*
Y415906D01*
X314094Y410000D02*
X325905D01*
X320000Y404095D02*
Y415906D01*
X323500Y456000D02*
X326500D01*
X325000Y454500D02*
Y457500D01*
X313500Y456000D02*
X316500D01*
X315000Y454500D02*
Y457500D01*
X263500Y456000D02*
X266500D01*
X265000Y454500D02*
Y457500D01*
X253500Y456000D02*
X256500D01*
X255000Y454500D02*
Y457500D01*
X273500Y456000D02*
X276500D01*
X275000Y454500D02*
Y457500D01*
X283500Y456000D02*
X286500D01*
X285000Y454500D02*
Y457500D01*
X293500Y456000D02*
X296500D01*
X295000Y454500D02*
Y457500D01*
X303500Y456000D02*
X306500D01*
X305000Y454500D02*
Y457500D01*
X189016Y307000D02*
X190984D01*
X190000Y306016D02*
Y307984D01*
X189016Y297000D02*
X190984D01*
X190000Y296016D02*
Y297984D01*
X312500Y392000D02*
X313500D01*
X313000Y391500D02*
Y392500D01*
X312500Y390000D02*
X313500D01*
X313000Y389500D02*
Y390500D01*
X310500Y392000D02*
X311500D01*
X311000Y391500D02*
Y392500D01*
X310500Y390000D02*
X311500D01*
X311000Y389500D02*
Y390500D01*
X456500Y351000D02*
X457500D01*
X457000Y350500D02*
Y351500D01*
X458500Y351000D02*
X459500D01*
X459000Y350500D02*
Y351500D01*
X458500Y349000D02*
X459500D01*
X459000Y348500D02*
Y349500D01*
X456500Y349000D02*
X457500D01*
X457000Y348500D02*
Y349500D01*
X380500Y344000D02*
X381500D01*
X381000Y343500D02*
Y344500D01*
X382500Y344000D02*
X383500D01*
X383000Y343500D02*
Y344500D01*
X382500Y342000D02*
X383500D01*
X383000Y341500D02*
Y342500D01*
X380500Y342000D02*
X381500D01*
X381000Y341500D02*
Y342500D01*
X333500Y461000D02*
X334500D01*
X334000Y460500D02*
Y461500D01*
X335500Y461000D02*
X336500D01*
X336000Y460500D02*
Y461500D01*
X335500Y459000D02*
X336500D01*
X336000Y458500D02*
Y459500D01*
X333500Y459000D02*
X334500D01*
X334000Y458500D02*
Y459500D01*
X126500Y383000D02*
X127500D01*
X127000Y382500D02*
Y383500D01*
X128500Y383000D02*
X129500D01*
X129000Y382500D02*
Y383500D01*
X128500Y381000D02*
X129500D01*
X129000Y380500D02*
Y381500D01*
X126500Y381000D02*
X127500D01*
X127000Y380500D02*
Y381500D01*
X183500Y265000D02*
X184500D01*
X184000Y264500D02*
Y265500D01*
X185500Y265000D02*
X186500D01*
X186000Y264500D02*
Y265500D01*
X185500Y263000D02*
X186500D01*
X186000Y262500D02*
Y263500D01*
X183500Y263000D02*
X184500D01*
X184000Y262500D02*
Y263500D01*
X127500Y250000D02*
X128500D01*
X128000Y249500D02*
Y250500D01*
X129500Y250000D02*
X130500D01*
X130000Y249500D02*
Y250500D01*
X129500Y248000D02*
X130500D01*
X130000Y247500D02*
Y248500D01*
X127500Y248000D02*
X128500D01*
X128000Y247500D02*
Y248500D01*
X182500Y183000D02*
X183500D01*
X183000Y182500D02*
Y183500D01*
X184500Y183000D02*
X185500D01*
X185000Y182500D02*
Y183500D01*
X184500Y181000D02*
X185500D01*
X185000Y180500D02*
Y181500D01*
X182500Y181000D02*
X183500D01*
X183000Y180500D02*
Y181500D01*
X382500Y180000D02*
X383500D01*
X383000Y179500D02*
Y180500D01*
X384500Y180000D02*
X385500D01*
X385000Y179500D02*
Y180500D01*
X384500Y178000D02*
X385500D01*
X385000Y177500D02*
Y178500D01*
X382500Y178000D02*
X383500D01*
X383000Y177500D02*
Y178500D01*
X388500Y218000D02*
X389500D01*
X389000Y217500D02*
Y218500D01*
X390500Y218000D02*
X391500D01*
X391000Y217500D02*
Y218500D01*
X390500Y216000D02*
X391500D01*
X391000Y215500D02*
Y216500D01*
X388500Y216000D02*
X389500D01*
X389000Y215500D02*
Y216500D01*
X395500Y412000D02*
X396500D01*
X396000Y411500D02*
Y412500D01*
X397500Y412000D02*
X398500D01*
X398000Y411500D02*
Y412500D01*
X397500Y414000D02*
X398500D01*
X398000Y413500D02*
Y414500D01*
X395500Y414000D02*
X396500D01*
X396000Y413500D02*
Y414500D01*
X282774Y158257D02*
X286711D01*
X284743Y156289D02*
Y160226D01*
X300016Y443000D02*
X301984D01*
X301000Y442016D02*
Y443984D01*
X289016Y431000D02*
X290984D01*
X290000Y430016D02*
Y431984D01*
X196016Y186000D02*
X197984D01*
X197000Y185016D02*
Y186984D01*
X369173Y279842D02*
X371142D01*
X370158Y278858D02*
Y280827D01*
X363016Y215000D02*
X364984D01*
X364000Y214016D02*
Y215984D01*
X363016Y204000D02*
X364984D01*
X364000Y203016D02*
Y204984D01*
X382016Y210000D02*
X383984D01*
X383000Y209016D02*
Y210984D01*
X420016Y228000D02*
X421984D01*
X421000Y227016D02*
Y228984D01*
X392016Y199000D02*
X393984D01*
X393000Y198016D02*
Y199984D01*
X459016Y213000D02*
X460984D01*
X460000Y212016D02*
Y213984D01*
X414016Y199000D02*
X415984D01*
X415000Y198016D02*
Y199984D01*
X377016Y220000D02*
X378984D01*
X378000Y219016D02*
Y220984D01*
X414016Y284000D02*
X415984D01*
X415000Y283016D02*
Y284984D01*
X418016Y203000D02*
X419984D01*
X419000Y202016D02*
Y203984D01*
X449016Y206000D02*
X450984D01*
X450000Y205016D02*
Y206984D01*
X441016Y210000D02*
X442984D01*
X442000Y209016D02*
Y210984D01*
X379516Y289000D02*
X381484D01*
X380500Y288016D02*
Y289984D01*
X386516Y289000D02*
X388484D01*
X387500Y288016D02*
Y289984D01*
X383016Y289000D02*
X384984D01*
X384000Y288016D02*
Y289984D01*
X390016Y289000D02*
X391984D01*
X391000Y288016D02*
Y289984D01*
X403016Y288000D02*
X404984D01*
X404000Y287016D02*
Y288984D01*
M02*
